<svg width="480" height="352" viewBox="0 0 480 352" fill="none" xmlns="http://www.w3.org/2000/svg">
<path d="M0.00807855 351.851C0.094232 351.773 14.4897 340.254 32.0023 326.25C56.0626 307.02 70.6225 295.446 91.6048 278.904L119.37 257.01L119.409 280.809L119.448 304.599L159.071 272.918L198.693 241.236L169.182 241.212C150.972 241.205 139.694 241.165 139.71 241.126C139.733 241.048 279.075 129.61 279.137 129.61C279.161 129.61 279.184 129.759 279.2 129.947L279.223 130.284L339.022 82.4677L398.82 34.6515L398.859 49.5637L398.898 64.4759L439.218 32.2379C461.391 14.5047 479.546 0 479.569 0C479.593 0 479.608 14.5439 479.608 32.3241C479.608 53.8187 479.632 64.6483 479.687 64.6483C479.734 64.6483 479.765 64.7893 479.765 64.9695C479.765 65.2203 479.789 65.283 479.883 65.2438C479.961 65.2125 480 65.2516 480 65.3535C480 65.4397 479.945 65.5102 479.883 65.5102C479.781 65.5102 479.765 71.7086 479.765 120.802C479.765 169.943 479.781 176.086 479.883 176C479.984 175.914 480 185.693 480 263.953V352H450.731C434.292 352 421.494 351.969 421.533 351.929C421.58 351.898 434.527 341.539 450.316 328.923C466.106 316.306 479.076 305.931 479.138 305.876C479.232 305.782 473.28 305.767 439.249 305.767H399.251V328.57V351.373H329.498C283.124 351.373 259.753 351.35 259.776 351.295C259.792 351.256 272.597 340.99 288.23 328.484C303.871 315.985 316.692 305.72 316.731 305.68C316.778 305.641 294.269 305.61 258.562 305.61H200.315V328.805V352H170.733C154.364 352 141.182 351.969 141.221 351.929C141.268 351.898 154.215 341.539 170.004 328.923C185.794 316.306 198.764 305.931 198.827 305.876C198.921 305.782 193.054 305.767 159.173 305.767H119.409V328.883V352H59.6341C1.1359 352 -0.140732 352 0.00807855 351.851ZM266.261 252.724C295.749 229.145 319.896 209.852 319.927 209.852C319.966 209.852 319.997 216.254 320.005 224.083L320.029 238.305L358.868 207.251L397.7 176.196L368.98 176.157L340.259 176.118L368.674 153.393C384.299 140.894 397.144 130.629 397.207 130.574C397.308 130.495 384.707 130.48 338.262 130.472H279.184V185.834V241.197H239.671H200.158V272.972C200.158 294.106 200.182 304.748 200.236 304.748C200.283 304.748 200.315 304.905 200.315 305.101V305.453L206.486 300.524C209.878 297.813 236.773 276.303 266.261 252.724ZM439.743 272.628C461.649 255.114 479.601 240.758 479.648 240.719C479.687 240.68 462.926 240.648 439.484 240.648H399.251V272.823V304.999L399.58 304.732C399.768 304.591 417.836 290.141 439.743 272.628ZM358.9 271.985C380.25 254.91 397.755 240.915 397.802 240.876C397.841 240.836 381.151 240.805 358.931 240.805H319.99V271.915C319.99 289.029 320.005 303.024 320.029 303.024C320.052 303.024 337.541 289.052 358.9 271.985ZM439.469 208.316C461.548 190.669 479.608 176.212 479.608 176.188C479.608 176.172 461.493 176.157 439.351 176.157H399.094V207.971C399.094 229.129 399.118 239.786 399.172 239.786C399.219 239.786 399.251 239.927 399.251 240.1C399.251 240.272 399.266 240.413 399.29 240.413C399.313 240.413 417.398 225.971 439.469 208.316ZM438.654 97.4504C460.428 80.0463 478.293 65.7532 478.355 65.6983C478.449 65.6043 472.207 65.5886 438.662 65.5886H398.859V97.4034C398.859 123.835 398.875 129.218 398.961 129.163C399.024 129.132 416.881 114.854 438.654 97.4504Z" fill="#ED1B35"/>
</svg>
